<?xml version="1.0" encoding="UTF-8" standalone="no"?>
<!DOCTYPE svg PUBLIC "-//W3C//DTD SVG 1.1//EN" "http://www.w3.org/Graphics/SVG/1.1/DTD/svg11.dtd">
<svg width="100%" height="100%" viewBox="0 0 45 45" version="1.1" xmlns="http://www.w3.org/2000/svg" xmlns:xlink="http://www.w3.org/1999/xlink" xml:space="preserve" xmlns:serif="http://www.serif.com/" style="fill-rule:evenodd;clip-rule:evenodd;stroke-linecap:round;stroke-linejoin:round;">
    <style>
        .light-mode { display: block; }
        .dark-mode { display: none; }

        @media (prefers-color-scheme: dark) {
            .light-mode { display: none; }
            .dark-mode { display: block; }
        }
    </style>

    <!-- Light mode version -->
    <g class="light-mode">
        <g transform="matrix(1,0,0,1,0,0.3)">
            <g transform="matrix(0.916667,0,0,1,0.166667,-0.3)">
                <rect x="2" y="2" width="12" height="2"/>
                <path d="M14.545,2L14.545,4C14.545,4.276 14.301,4.5 14,4.5L2,4.5C1.699,4.5 1.455,4.276 1.455,4L1.455,2C1.455,1.724 1.699,1.5 2,1.5L14,1.5C14.301,1.5 14.545,1.724 14.545,2ZM14,2L2,2L2,4L14,4L14,2Z"/>
            </g>
            <g transform="matrix(0,0.916667,-1,0,6,-0.133333)">
                <rect x="2" y="2" width="12" height="2"/>
                <path d="M14.545,2L14.545,4C14.545,4.276 14.301,4.5 14,4.5L2,4.5C1.699,4.5 1.455,4.276 1.455,4L1.455,2C1.455,1.724 1.699,1.5 2,1.5L14,1.5C14.301,1.5 14.545,1.724 14.545,2ZM14,2L2,2L2,4L14,4L14,2Z"/>
            </g>
            <g transform="matrix(0.916667,0,0,1,0.166667,38.7)">
                <rect x="2" y="2" width="12" height="2"/>
                <path d="M14.545,2L14.545,4C14.545,4.276 14.301,4.5 14,4.5L2,4.5C1.699,4.5 1.455,4.276 1.455,4L1.455,2C1.455,1.724 1.699,1.5 2,1.5L14,1.5C14.301,1.5 14.545,1.724 14.545,2ZM14,2L2,2L2,4L14,4L14,2Z"/>
            </g>
            <g transform="matrix(0,0.916667,-1,0,6,29.866667)">
                <rect x="2" y="2" width="12" height="2"/>
                <path d="M14.545,2L14.545,4C14.545,4.276 14.301,4.5 14,4.5L2,4.5C1.699,4.5 1.455,4.276 1.455,4L1.455,2C1.455,1.724 1.699,1.5 2,1.5L14,1.5C14.301,1.5 14.545,1.724 14.545,2ZM14,2L2,2L2,4L14,4L14,2Z"/>
            </g>
            <g transform="matrix(0.916667,0,0,1,30.166667,38.7)">
                <rect x="2" y="2" width="12" height="2"/>
                <path d="M14.545,2L14.545,4C14.545,4.276 14.301,4.5 14,4.5L2,4.5C1.699,4.5 1.455,4.276 1.455,4L1.455,2C1.455,1.724 1.699,1.5 2,1.5L14,1.5C14.301,1.5 14.545,1.724 14.545,2ZM14,2L2,2L2,4L14,4L14,2Z"/>
            </g>
            <g transform="matrix(0,0.916667,-1,0,45,29.866667)">
                <rect x="2" y="2" width="12" height="2"/>
                <path d="M14.545,2L14.545,4C14.545,4.276 14.301,4.5 14,4.5L2,4.5C1.699,4.5 1.455,4.276 1.455,4L1.455,2C1.455,1.724 1.699,1.5 2,1.5L14,1.5C14.301,1.5 14.545,1.724 14.545,2ZM14,2L2,2L2,4L14,4L14,2Z"/>
            </g>
            <g transform="matrix(0,0.916667,-1,0,45,-0.133333)">
                <rect x="2" y="2" width="12" height="2"/>
                <path d="M14.545,2L14.545,4C14.545,4.276 14.301,4.5 14,4.5L2,4.5C1.699,4.5 1.455,4.276 1.455,4L1.455,2C1.455,1.724 1.699,1.5 2,1.5L14,1.5C14.301,1.5 14.545,1.724 14.545,2ZM14,2L2,2L2,4L14,4L14,2Z"/>
            </g>
            <g transform="matrix(0.916667,0,0,1,30.166667,-0.3)">
                <rect x="2" y="2" width="12" height="2"/>
                <path d="M14.545,2L14.545,4C14.545,4.276 14.301,4.5 14,4.5L2,4.5C1.699,4.5 1.455,4.276 1.455,4L1.455,2C1.455,1.724 1.699,1.5 2,1.5L14,1.5C14.301,1.5 14.545,1.724 14.545,2ZM14,2L2,2L2,4L14,4L14,2Z"/>
            </g>
        </g>
        <g transform="matrix(0.784615,0,0,0.784615,5.292307,3.807692)">
            <path d="M22,10C32.5,11 38.5,18 38,39L15,39C15,30 25,32.5 23,18" style="stroke:black;stroke-width:1.5px;"/>
            <path d="M24,18C24.38,20.91 18.45,25.37 16,27C13,29 13.18,31.34 11,31C9.958,30.06 12.41,27.96 11,28C10,28 11.19,29.23 10,30C9,30 5.997,31 6,26C6,24 12,14 12,14C12,14 13.89,12.1 14,10.5C13.27,9.506 13.5,8.5 13.5,7.5C14.5,6.5 16.5,10 16.5,10L18.5,10C18.5,10 19.28,8.008 21,7C22,7 22,10 22,10" style="stroke:black;stroke-width:1.5px;"/>
            <path d="M9.5,25.5C9.5,25.774 9.274,26 9,26C8.726,26 8.5,25.774 8.5,25.5C8.5,25.226 8.726,25 9,25C9.274,25 9.5,25.226 9.5,25.5Z" style="fill:white;stroke:white;stroke-width:1.5px;"/>
            <g transform="matrix(0.866,0.5,-0.5,0.866,9.693,-5.173)">
                <path d="M15,15.5C15,16.323 14.774,17 14.5,17C14.226,17 14,16.323 14,15.5C14,14.677 14.226,14 14.5,14C14.774,14 15,14.677 15,15.5Z" style="fill:white;stroke:white;stroke-width:1.5px;"/>
            </g>
            <path d="M24.55,10.4L24.1,11.85L24.6,12C27.75,13 30.25,14.49 32.5,18.75C34.75,23.01 35.75,29.06 35.25,39L35.2,39.5L37.45,39.5L37.5,39C38,28.94 36.62,22.15 34.25,17.66C31.88,13.17 28.46,11.02 25.06,10.5L24.55,10.4Z" style="fill:white;"/>
        </g>
    </g>

    <!-- Dark mode version -->
    <g class="dark-mode">
        <g transform="matrix(1,0,0,1,0,0.3)">
            <g transform="matrix(0.916667,0,0,1,0.166667,-0.3)">
                <rect x="2" y="2" width="12" height="2" style="fill:white;"/>
                <path d="M14.545,2L14.545,4C14.545,4.276 14.301,4.5 14,4.5L2,4.5C1.699,4.5 1.455,4.276 1.455,4L1.455,2C1.455,1.724 1.699,1.5 2,1.5L14,1.5C14.301,1.5 14.545,1.724 14.545,2ZM14,2L2,2L2,4L14,4L14,2Z"/>
            </g>
            <g transform="matrix(0,0.916667,-1,0,6,-0.133333)">
                <rect x="2" y="2" width="12" height="2" style="fill:white;"/>
                <path d="M14.545,2L14.545,4C14.545,4.276 14.301,4.5 14,4.5L2,4.5C1.699,4.5 1.455,4.276 1.455,4L1.455,2C1.455,1.724 1.699,1.5 2,1.5L14,1.5C14.301,1.5 14.545,1.724 14.545,2ZM14,2L2,2L2,4L14,4L14,2Z"/>
            </g>
            <g transform="matrix(0.916667,0,0,1,0.166667,38.7)">
                <rect x="2" y="2" width="12" height="2" style="fill:white;"/>
                <path d="M14.545,2L14.545,4C14.545,4.276 14.301,4.5 14,4.5L2,4.5C1.699,4.5 1.455,4.276 1.455,4L1.455,2C1.455,1.724 1.699,1.5 2,1.5L14,1.5C14.301,1.5 14.545,1.724 14.545,2ZM14,2L2,2L2,4L14,4L14,2Z"/>
            </g>
            <g transform="matrix(0,0.916667,-1,0,6,29.866667)">
                <rect x="2" y="2" width="12" height="2" style="fill:white;"/>
                <path d="M14.545,2L14.545,4C14.545,4.276 14.301,4.5 14,4.5L2,4.5C1.699,4.5 1.455,4.276 1.455,4L1.455,2C1.455,1.724 1.699,1.5 2,1.5L14,1.5C14.301,1.5 14.545,1.724 14.545,2ZM14,2L2,2L2,4L14,4L14,2Z"/>
            </g>
            <g transform="matrix(0.916667,0,0,1,30.166667,38.7)">
                <rect x="2" y="2" width="12" height="2" style="fill:white;"/>
                <path d="M14.545,2L14.545,4C14.545,4.276 14.301,4.5 14,4.5L2,4.5C1.699,4.5 1.455,4.276 1.455,4L1.455,2C1.455,1.724 1.699,1.5 2,1.5L14,1.5C14.301,1.5 14.545,1.724 14.545,2ZM14,2L2,2L2,4L14,4L14,2Z"/>
            </g>
            <g transform="matrix(0,0.916667,-1,0,45,29.866667)">
                <rect x="2" y="2" width="12" height="2" style="fill:white;"/>
                <path d="M14.545,2L14.545,4C14.545,4.276 14.301,4.5 14,4.5L2,4.5C1.699,4.5 1.455,4.276 1.455,4L1.455,2C1.455,1.724 1.699,1.5 2,1.5L14,1.5C14.301,1.5 14.545,1.724 14.545,2ZM14,2L2,2L2,4L14,4L14,2Z"/>
            </g>
            <g transform="matrix(0,0.916667,-1,0,45,-0.133333)">
                <rect x="2" y="2" width="12" height="2" style="fill:white;"/>
                <path d="M14.545,2L14.545,4C14.545,4.276 14.301,4.5 14,4.5L2,4.5C1.699,4.5 1.455,4.276 1.455,4L1.455,2C1.455,1.724 1.699,1.5 2,1.5L14,1.5C14.301,1.5 14.545,1.724 14.545,2ZM14,2L2,2L2,4L14,4L14,2Z"/>
            </g>
            <g transform="matrix(0.916667,0,0,1,30.166667,-0.3)">
                <rect x="2" y="2" width="12" height="2" style="fill:white;"/>
                <path d="M14.545,2L14.545,4C14.545,4.276 14.301,4.5 14,4.5L2,4.5C1.699,4.5 1.455,4.276 1.455,4L1.455,2C1.455,1.724 1.699,1.5 2,1.5L14,1.5C14.301,1.5 14.545,1.724 14.545,2ZM14,2L2,2L2,4L14,4L14,2Z"/>
            </g>
            <g transform="matrix(1,0,0,1,0,-0.3)">
                <g transform="matrix(1,0,0,1,37,0)">
                    <rect x="3" y="41" width="2" height="2" style="fill:white;"/>
                </g>
                <g transform="matrix(1,0,0,1,38,-38)">
                    <rect x="3" y="41" width="2" height="2" style="fill:white;"/>
                </g>
                <rect x="3" y="41" width="2" height="2" style="fill:white;"/>
                <g transform="matrix(1,0,0,1,0,-39)">
                    <rect x="3" y="41" width="2" height="2" style="fill:white;"/>
                </g>
            </g>
        </g>
        <g transform="matrix(0.781448,0,0,0.781448,5.311313,3.829865)">
            <path d="M22,10C32.5,11 38.5,18 38,39L15,39C15,30 25,32.5 23,18" style="fill:white;stroke:black;stroke-width:1.5px;"/>
            <path d="M24,18C24.38,20.91 18.45,25.37 16,27C13,29 13.18,31.34 11,31C9.958,30.06 12.41,27.96 11,28C10,28 11.19,29.23 10,30C9,30 5.997,31 6,26C6,24 12,14 12,14C12,14 13.89,12.1 14,10.5C13.27,9.506 13.5,8.5 13.5,7.5C14.5,6.5 16.5,10 16.5,10L18.5,10C18.5,10 19.28,8.008 21,7C22,7 22,10 22,10" style="fill:white;stroke:black;stroke-width:1.5px;"/>
            <path d="M9.5,25.5C9.5,25.774 9.274,26 9,26C8.726,26 8.5,25.774 8.5,25.5C8.5,25.226 8.726,25 9,25C9.274,25 9.5,25.226 9.5,25.5Z" style="stroke:black;stroke-width:1.5px;"/>
            <g transform="matrix(0.866,0.5,-0.5,0.866,9.693,-5.173)">
                <path d="M15,15.5C15,16.323 14.774,17 14.5,17C14.226,17 14,16.323 14,15.5C14,14.677 14.226,14 14.5,14C14.774,14 15,14.677 15,15.5Z" style="stroke:black;stroke-width:1.5px;"/>
            </g>
        </g>
    </g>
</svg>
